<svg width="91px" height="79px" viewBox="0 0 91 79" version="1.1" xmlns="http://www.w3.org/2000/svg">
    <title>ai-chip</title>
    <desc>AI Chip Icon</desc>
    <g stroke="none" stroke-width="1" fill="none" fill-rule="evenodd">
        <!-- Main chip body -->
        <rect x="20" y="20" width="51" height="39" rx="4" fill="#4A90E2" stroke="none"></rect>
        
        <!-- Connection pins - left side -->
        <rect x="10" y="25" width="10" height="3" rx="1" fill="#666666"></rect>
        <rect x="10" y="30" width="10" height="3" rx="1" fill="#666666"></rect>
        <rect x="10" y="35" width="10" height="3" rx="1" fill="#666666"></rect>
        <rect x="10" y="40" width="10" height="3" rx="1" fill="#666666"></rect>
        <rect x="10" y="45" width="10" height="3" rx="1" fill="#666666"></rect>
        <rect x="10" y="50" width="10" height="3" rx="1" fill="#666666"></rect>
        
        <!-- Connection pins - right side -->
        <rect x="71" y="25" width="10" height="3" rx="1" fill="#666666"></rect>
        <rect x="71" y="30" width="10" height="3" rx="1" fill="#666666"></rect>
        <rect x="71" y="35" width="10" height="3" rx="1" fill="#666666"></rect>
        <rect x="71" y="40" width="10" height="3" rx="1" fill="#666666"></rect>
        <rect x="71" y="45" width="10" height="3" rx="1" fill="#666666"></rect>
        <rect x="71" y="50" width="10" height="3" rx="1" fill="#666666"></rect>
        
        <!-- Connection pins - top -->
        <rect x="30" y="10" width="3" height="10" rx="1" fill="#666666"></rect>
        <rect x="35" y="10" width="3" height="10" rx="1" fill="#666666"></rect>
        <rect x="40" y="10" width="3" height="10" rx="1" fill="#666666"></rect>
        <rect x="45" y="10" width="3" height="10" rx="1" fill="#666666"></rect>
        <rect x="50" y="10" width="3" height="10" rx="1" fill="#666666"></rect>
        <rect x="55" y="10" width="3" height="10" rx="1" fill="#666666"></rect>
        
        <!-- Connection pins - bottom -->
        <rect x="30" y="59" width="3" height="10" rx="1" fill="#666666"></rect>
        <rect x="35" y="59" width="3" height="10" rx="1" fill="#666666"></rect>
        <rect x="40" y="59" width="3" height="10" rx="1" fill="#666666"></rect>
        <rect x="45" y="59" width="3" height="10" rx="1" fill="#666666"></rect>
        <rect x="50" y="59" width="3" height="10" rx="1" fill="#666666"></rect>
        <rect x="55" y="59" width="3" height="10" rx="1" fill="#666666"></rect>
        
        <!-- AI text in center -->
        <text x="45.5" y="44" font-family="Arial, sans-serif" font-size="14" font-weight="bold" text-anchor="middle" fill="white">AI</text>
        
        <!-- Circuit details -->
        <circle cx="28" cy="28" r="1.5" fill="white" opacity="0.7"></circle>
        <circle cx="63" cy="28" r="1.5" fill="white" opacity="0.7"></circle>
        <circle cx="28" cy="51" r="1.5" fill="white" opacity="0.7"></circle>
        <circle cx="63" cy="51" r="1.5" fill="white" opacity="0.7"></circle>
        
        <!-- Small connecting lines -->
        <line x1="28" y1="28" x2="35" y2="35" stroke="white" stroke-width="1" opacity="0.5"></line>
        <line x1="63" y1="28" x2="56" y2="35" stroke="white" stroke-width="1" opacity="0.5"></line>
        <line x1="28" y1="51" x2="35" y2="44" stroke="white" stroke-width="1" opacity="0.5"></line>
        <line x1="63" y1="51" x2="56" y2="44" stroke="white" stroke-width="1" opacity="0.5"></line>
    </g>
</svg>